<mxfile host="app.diagrams.net" agent="Mozilla/5.0 (X11; Linux x86_64) AppleWebKit/537.36 (KHTML, like Gecko) Chrome/132.0.0.0 YaBrowser/25.2.0.0 Safari/537.36" version="26.2.14">
  <diagram id="l34R9L98ikFbTCZK01Rr" name="Страница — 1">
    <mxGraphModel dx="2835" dy="2349" grid="0" gridSize="10" guides="1" tooltips="1" connect="1" arrows="1" fold="1" page="1" pageScale="1" pageWidth="827" pageHeight="1169" math="0" shadow="0">
      <root>
        <mxCell id="0" />
        <mxCell id="1" parent="0" />
        <mxCell id="9jYD4hcjV8UE8tQ0Zy73-1" value="Человек" style="rounded=0;whiteSpace=wrap;html=1;" parent="1" vertex="1">
          <mxGeometry x="226" y="-5" width="120" height="90" as="geometry" />
        </mxCell>
        <mxCell id="9jYD4hcjV8UE8tQ0Zy73-2" value="Клиент" style="rounded=0;whiteSpace=wrap;html=1;" parent="1" vertex="1">
          <mxGeometry x="-100" y="8" width="120" height="60" as="geometry" />
        </mxCell>
        <mxCell id="9jYD4hcjV8UE8tQ0Zy73-3" value="Курьер" style="rounded=0;whiteSpace=wrap;html=1;" parent="1" vertex="1">
          <mxGeometry x="520" y="10" width="120" height="60" as="geometry" />
        </mxCell>
        <mxCell id="9jYD4hcjV8UE8tQ0Zy73-67" style="edgeStyle=orthogonalEdgeStyle;rounded=0;orthogonalLoop=1;jettySize=auto;html=1;exitX=0.5;exitY=1;exitDx=0;exitDy=0;entryX=0.5;entryY=0;entryDx=0;entryDy=0;endArrow=none;startFill=0;" parent="1" source="9jYD4hcjV8UE8tQ0Zy73-4" target="9jYD4hcjV8UE8tQ0Zy73-66" edge="1">
          <mxGeometry relative="1" as="geometry" />
        </mxCell>
        <mxCell id="9jYD4hcjV8UE8tQ0Zy73-70" style="edgeStyle=orthogonalEdgeStyle;rounded=0;orthogonalLoop=1;jettySize=auto;html=1;exitX=0;exitY=0.5;exitDx=0;exitDy=0;entryX=1;entryY=0.5;entryDx=0;entryDy=0;endArrow=none;startFill=0;" parent="1" source="9jYD4hcjV8UE8tQ0Zy73-4" target="9jYD4hcjV8UE8tQ0Zy73-69" edge="1">
          <mxGeometry relative="1" as="geometry" />
        </mxCell>
        <mxCell id="9jYD4hcjV8UE8tQ0Zy73-4" value="Магазин" style="rounded=0;whiteSpace=wrap;html=1;" parent="1" vertex="1">
          <mxGeometry y="600" width="120" height="60" as="geometry" />
        </mxCell>
        <mxCell id="NzuITZrCwcUjT3j505YK-7" style="edgeStyle=orthogonalEdgeStyle;rounded=0;orthogonalLoop=1;jettySize=auto;html=1;exitX=0.5;exitY=0;exitDx=0;exitDy=0;entryX=0.5;entryY=1;entryDx=0;entryDy=0;endArrow=none;startFill=0;" parent="1" source="9jYD4hcjV8UE8tQ0Zy73-5" target="NzuITZrCwcUjT3j505YK-2" edge="1">
          <mxGeometry relative="1" as="geometry" />
        </mxCell>
        <mxCell id="9jYD4hcjV8UE8tQ0Zy73-5" value="Продукт" style="rounded=0;whiteSpace=wrap;html=1;" parent="1" vertex="1">
          <mxGeometry x="294" y="980" width="120" height="60" as="geometry" />
        </mxCell>
        <mxCell id="NzuITZrCwcUjT3j505YK-3" style="edgeStyle=orthogonalEdgeStyle;rounded=0;orthogonalLoop=1;jettySize=auto;html=1;exitX=0.5;exitY=1;exitDx=0;exitDy=0;entryX=0.5;entryY=0;entryDx=0;entryDy=0;endArrow=none;startFill=0;" parent="1" source="9jYD4hcjV8UE8tQ0Zy73-6" target="NzuITZrCwcUjT3j505YK-2" edge="1">
          <mxGeometry relative="1" as="geometry" />
        </mxCell>
        <mxCell id="9jYD4hcjV8UE8tQ0Zy73-6" value="Элемент корзины" style="rounded=0;whiteSpace=wrap;html=1;" parent="1" vertex="1">
          <mxGeometry x="293" y="790" width="120" height="60" as="geometry" />
        </mxCell>
        <mxCell id="NzuITZrCwcUjT3j505YK-5" style="edgeStyle=orthogonalEdgeStyle;rounded=0;orthogonalLoop=1;jettySize=auto;html=1;exitX=0.5;exitY=1;exitDx=0;exitDy=0;entryX=0.5;entryY=0;entryDx=0;entryDy=0;endArrow=none;startFill=0;" parent="1" source="9jYD4hcjV8UE8tQ0Zy73-7" target="NzuITZrCwcUjT3j505YK-1" edge="1">
          <mxGeometry relative="1" as="geometry" />
        </mxCell>
        <mxCell id="9jYD4hcjV8UE8tQ0Zy73-7" value="Корзина" style="rounded=0;whiteSpace=wrap;html=1;" parent="1" vertex="1">
          <mxGeometry x="294" y="590" width="120" height="60" as="geometry" />
        </mxCell>
        <mxCell id="9jYD4hcjV8UE8tQ0Zy73-55" style="edgeStyle=orthogonalEdgeStyle;rounded=0;orthogonalLoop=1;jettySize=auto;html=1;exitX=0.5;exitY=1;exitDx=0;exitDy=0;entryX=0.5;entryY=0;entryDx=0;entryDy=0;endArrow=none;startFill=0;" parent="1" source="9jYD4hcjV8UE8tQ0Zy73-8" target="9jYD4hcjV8UE8tQ0Zy73-54" edge="1">
          <mxGeometry relative="1" as="geometry" />
        </mxCell>
        <mxCell id="9jYD4hcjV8UE8tQ0Zy73-57" style="edgeStyle=orthogonalEdgeStyle;rounded=0;orthogonalLoop=1;jettySize=auto;html=1;exitX=0.5;exitY=1;exitDx=0;exitDy=0;entryX=0.5;entryY=0;entryDx=0;entryDy=0;endArrow=none;startFill=0;" parent="1" source="9jYD4hcjV8UE8tQ0Zy73-8" target="9jYD4hcjV8UE8tQ0Zy73-56" edge="1">
          <mxGeometry relative="1" as="geometry" />
        </mxCell>
        <mxCell id="9jYD4hcjV8UE8tQ0Zy73-63" style="edgeStyle=orthogonalEdgeStyle;rounded=0;orthogonalLoop=1;jettySize=auto;html=1;exitX=0.5;exitY=1;exitDx=0;exitDy=0;entryX=0.5;entryY=0;entryDx=0;entryDy=0;endArrow=none;startFill=0;" parent="1" source="9jYD4hcjV8UE8tQ0Zy73-8" target="9jYD4hcjV8UE8tQ0Zy73-62" edge="1">
          <mxGeometry relative="1" as="geometry" />
        </mxCell>
        <mxCell id="9jYD4hcjV8UE8tQ0Zy73-8" value="Заказ" style="rounded=0;whiteSpace=wrap;html=1;" parent="1" vertex="1">
          <mxGeometry x="520" y="250" width="120" height="60" as="geometry" />
        </mxCell>
        <mxCell id="9jYD4hcjV8UE8tQ0Zy73-61" style="edgeStyle=orthogonalEdgeStyle;rounded=0;orthogonalLoop=1;jettySize=auto;html=1;exitX=0.5;exitY=1;exitDx=0;exitDy=0;entryX=0.5;entryY=0;entryDx=0;entryDy=0;endArrow=none;startFill=0;" parent="1" source="9jYD4hcjV8UE8tQ0Zy73-9" target="9jYD4hcjV8UE8tQ0Zy73-59" edge="1">
          <mxGeometry relative="1" as="geometry" />
        </mxCell>
        <mxCell id="9jYD4hcjV8UE8tQ0Zy73-9" value="Доставка&amp;nbsp;" style="rounded=0;whiteSpace=wrap;html=1;" parent="1" vertex="1">
          <mxGeometry x="610" y="600" width="120" height="60" as="geometry" />
        </mxCell>
        <mxCell id="9jYD4hcjV8UE8tQ0Zy73-10" value="Статус заказа" style="rounded=0;whiteSpace=wrap;html=1;" parent="1" vertex="1">
          <mxGeometry x="220" y="250" width="120" height="60" as="geometry" />
        </mxCell>
        <mxCell id="9jYD4hcjV8UE8tQ0Zy73-76" style="edgeStyle=orthogonalEdgeStyle;rounded=0;orthogonalLoop=1;jettySize=auto;html=1;entryX=0.5;entryY=0;entryDx=0;entryDy=0;endArrow=none;startFill=0;" parent="1" source="9jYD4hcjV8UE8tQ0Zy73-11" target="9jYD4hcjV8UE8tQ0Zy73-72" edge="1">
          <mxGeometry relative="1" as="geometry">
            <Array as="points">
              <mxPoint x="280" y="-190" />
              <mxPoint x="-40" y="-190" />
            </Array>
          </mxGeometry>
        </mxCell>
        <mxCell id="9jYD4hcjV8UE8tQ0Zy73-77" style="edgeStyle=orthogonalEdgeStyle;rounded=0;orthogonalLoop=1;jettySize=auto;html=1;exitX=0.5;exitY=1;exitDx=0;exitDy=0;entryX=0.5;entryY=0;entryDx=0;entryDy=0;endArrow=none;startFill=0;" parent="1" source="9jYD4hcjV8UE8tQ0Zy73-11" target="9jYD4hcjV8UE8tQ0Zy73-73" edge="1">
          <mxGeometry relative="1" as="geometry">
            <Array as="points">
              <mxPoint x="280" y="-190" />
              <mxPoint x="580" y="-190" />
            </Array>
          </mxGeometry>
        </mxCell>
        <mxCell id="9jYD4hcjV8UE8tQ0Zy73-79" style="edgeStyle=orthogonalEdgeStyle;rounded=0;orthogonalLoop=1;jettySize=auto;html=1;exitX=0;exitY=0.25;exitDx=0;exitDy=0;entryX=0;entryY=0.5;entryDx=0;entryDy=0;endArrow=none;startFill=0;" parent="1" source="9jYD4hcjV8UE8tQ0Zy73-11" target="9jYD4hcjV8UE8tQ0Zy73-80" edge="1">
          <mxGeometry relative="1" as="geometry">
            <mxPoint x="-290" y="310" as="targetPoint" />
            <Array as="points">
              <mxPoint x="220" y="-240" />
              <mxPoint x="-300" y="-240" />
              <mxPoint x="-300" y="390" />
            </Array>
          </mxGeometry>
        </mxCell>
        <mxCell id="9jYD4hcjV8UE8tQ0Zy73-11" value="Сообщение" style="rounded=0;whiteSpace=wrap;html=1;" parent="1" vertex="1">
          <mxGeometry x="220" y="-270" width="120" height="60" as="geometry" />
        </mxCell>
        <mxCell id="9jYD4hcjV8UE8tQ0Zy73-12" value="Карта" style="rounded=0;whiteSpace=wrap;html=1;" parent="1" vertex="1">
          <mxGeometry x="-100" y="76" width="120" height="60" as="geometry" />
        </mxCell>
        <mxCell id="9jYD4hcjV8UE8tQ0Zy73-13" value="ИМЯ" style="ellipse;whiteSpace=wrap;html=1;" parent="1" vertex="1">
          <mxGeometry x="50" y="-97" width="120" height="80" as="geometry" />
        </mxCell>
        <mxCell id="9jYD4hcjV8UE8tQ0Zy73-14" value="ПАСПОРТ" style="ellipse;whiteSpace=wrap;html=1;" parent="1" vertex="1">
          <mxGeometry x="170" y="-153" width="120" height="80" as="geometry" />
        </mxCell>
        <mxCell id="9jYD4hcjV8UE8tQ0Zy73-15" value="ДАТА РОЖДЕНИЯ" style="ellipse;whiteSpace=wrap;html=1;" parent="1" vertex="1">
          <mxGeometry x="403" y="-104" width="120" height="80" as="geometry" />
        </mxCell>
        <mxCell id="9jYD4hcjV8UE8tQ0Zy73-16" value="КОНТАКТНАЯ ИНФОРМАЦИЯ" style="ellipse;whiteSpace=wrap;html=1;" parent="1" vertex="1">
          <mxGeometry x="298" y="-160" width="120" height="80" as="geometry" />
        </mxCell>
        <mxCell id="9jYD4hcjV8UE8tQ0Zy73-19" value="" style="endArrow=none;html=1;rounded=0;entryX=0.5;entryY=1;entryDx=0;entryDy=0;exitX=0.5;exitY=0;exitDx=0;exitDy=0;" parent="1" source="9jYD4hcjV8UE8tQ0Zy73-1" target="9jYD4hcjV8UE8tQ0Zy73-14" edge="1">
          <mxGeometry width="50" height="50" relative="1" as="geometry">
            <mxPoint x="280" y="20" as="sourcePoint" />
            <mxPoint x="330" y="-30" as="targetPoint" />
          </mxGeometry>
        </mxCell>
        <mxCell id="9jYD4hcjV8UE8tQ0Zy73-20" value="" style="endArrow=none;html=1;rounded=0;entryX=0.5;entryY=1;entryDx=0;entryDy=0;exitX=0.5;exitY=0;exitDx=0;exitDy=0;" parent="1" source="9jYD4hcjV8UE8tQ0Zy73-1" target="9jYD4hcjV8UE8tQ0Zy73-16" edge="1">
          <mxGeometry width="50" height="50" relative="1" as="geometry">
            <mxPoint x="280" y="20" as="sourcePoint" />
            <mxPoint x="330" y="-30" as="targetPoint" />
          </mxGeometry>
        </mxCell>
        <mxCell id="9jYD4hcjV8UE8tQ0Zy73-21" value="" style="endArrow=none;html=1;rounded=0;entryX=0.5;entryY=0;entryDx=0;entryDy=0;exitX=1;exitY=0.5;exitDx=0;exitDy=0;" parent="1" source="9jYD4hcjV8UE8tQ0Zy73-13" target="9jYD4hcjV8UE8tQ0Zy73-1" edge="1">
          <mxGeometry width="50" height="50" relative="1" as="geometry">
            <mxPoint x="170" y="20" as="sourcePoint" />
            <mxPoint x="220" y="-30" as="targetPoint" />
          </mxGeometry>
        </mxCell>
        <mxCell id="9jYD4hcjV8UE8tQ0Zy73-22" value="" style="endArrow=none;html=1;rounded=0;entryX=0;entryY=1;entryDx=0;entryDy=0;exitX=0.5;exitY=0;exitDx=0;exitDy=0;" parent="1" source="9jYD4hcjV8UE8tQ0Zy73-1" target="9jYD4hcjV8UE8tQ0Zy73-15" edge="1">
          <mxGeometry width="50" height="50" relative="1" as="geometry">
            <mxPoint x="290" y="40" as="sourcePoint" />
            <mxPoint x="340" y="-10" as="targetPoint" />
          </mxGeometry>
        </mxCell>
        <mxCell id="9jYD4hcjV8UE8tQ0Zy73-23" value="Является" style="rhombus;whiteSpace=wrap;html=1;" parent="1" vertex="1">
          <mxGeometry x="80" width="80" height="80" as="geometry" />
        </mxCell>
        <mxCell id="9jYD4hcjV8UE8tQ0Zy73-24" value="Является" style="rhombus;whiteSpace=wrap;html=1;" parent="1" vertex="1">
          <mxGeometry x="403" width="80" height="80" as="geometry" />
        </mxCell>
        <mxCell id="9jYD4hcjV8UE8tQ0Zy73-25" value="" style="endArrow=none;html=1;rounded=0;entryX=0;entryY=0.5;entryDx=0;entryDy=0;exitX=1;exitY=0.5;exitDx=0;exitDy=0;" parent="1" source="9jYD4hcjV8UE8tQ0Zy73-2" target="9jYD4hcjV8UE8tQ0Zy73-23" edge="1">
          <mxGeometry width="50" height="50" relative="1" as="geometry">
            <mxPoint x="20" y="100" as="sourcePoint" />
            <mxPoint x="70" y="50" as="targetPoint" />
          </mxGeometry>
        </mxCell>
        <mxCell id="9jYD4hcjV8UE8tQ0Zy73-27" value="" style="endArrow=none;html=1;rounded=0;entryX=0;entryY=0.5;entryDx=0;entryDy=0;exitX=1;exitY=0.5;exitDx=0;exitDy=0;" parent="1" source="9jYD4hcjV8UE8tQ0Zy73-23" target="9jYD4hcjV8UE8tQ0Zy73-1" edge="1">
          <mxGeometry width="50" height="50" relative="1" as="geometry">
            <mxPoint x="160" y="95" as="sourcePoint" />
            <mxPoint x="210" y="50" as="targetPoint" />
          </mxGeometry>
        </mxCell>
        <mxCell id="9jYD4hcjV8UE8tQ0Zy73-28" value="" style="endArrow=none;html=1;rounded=0;entryX=0;entryY=0.5;entryDx=0;entryDy=0;exitX=1;exitY=0.5;exitDx=0;exitDy=0;" parent="1" source="9jYD4hcjV8UE8tQ0Zy73-1" target="9jYD4hcjV8UE8tQ0Zy73-24" edge="1">
          <mxGeometry width="50" height="50" relative="1" as="geometry">
            <mxPoint x="370" y="90" as="sourcePoint" />
            <mxPoint x="420" y="40" as="targetPoint" />
          </mxGeometry>
        </mxCell>
        <mxCell id="9jYD4hcjV8UE8tQ0Zy73-29" value="" style="endArrow=none;html=1;rounded=0;entryX=0;entryY=0.5;entryDx=0;entryDy=0;exitX=1;exitY=0.5;exitDx=0;exitDy=0;" parent="1" source="9jYD4hcjV8UE8tQ0Zy73-24" target="9jYD4hcjV8UE8tQ0Zy73-3" edge="1">
          <mxGeometry width="50" height="50" relative="1" as="geometry">
            <mxPoint x="480" y="100" as="sourcePoint" />
            <mxPoint x="530" y="50" as="targetPoint" />
          </mxGeometry>
        </mxCell>
        <mxCell id="__WKi6zQJQ2ZGf-G3xiZ-1" style="edgeStyle=orthogonalEdgeStyle;rounded=0;orthogonalLoop=1;jettySize=auto;html=1;exitX=0;exitY=0.5;exitDx=0;exitDy=0;entryX=0;entryY=0.25;entryDx=0;entryDy=0;endArrow=none;startFill=0;" edge="1" parent="1" source="9jYD4hcjV8UE8tQ0Zy73-30" target="9jYD4hcjV8UE8tQ0Zy73-2">
          <mxGeometry relative="1" as="geometry">
            <Array as="points">
              <mxPoint x="540" y="197" />
              <mxPoint x="-291" y="197" />
              <mxPoint x="-291" y="31" />
              <mxPoint x="-100" y="31" />
            </Array>
          </mxGeometry>
        </mxCell>
        <mxCell id="9jYD4hcjV8UE8tQ0Zy73-30" value="Оформляет" style="rhombus;whiteSpace=wrap;html=1;" parent="1" vertex="1">
          <mxGeometry x="540" y="153" width="80" height="80" as="geometry" />
        </mxCell>
        <mxCell id="9jYD4hcjV8UE8tQ0Zy73-32" value="" style="endArrow=none;html=1;rounded=0;entryX=0.5;entryY=1;entryDx=0;entryDy=0;exitX=0.5;exitY=0;exitDx=0;exitDy=0;" parent="1" source="9jYD4hcjV8UE8tQ0Zy73-8" target="9jYD4hcjV8UE8tQ0Zy73-30" edge="1">
          <mxGeometry width="50" height="50" relative="1" as="geometry">
            <mxPoint x="550" y="250" as="sourcePoint" />
            <mxPoint x="600" y="200" as="targetPoint" />
          </mxGeometry>
        </mxCell>
        <mxCell id="9jYD4hcjV8UE8tQ0Zy73-33" value="Дата создания" style="ellipse;whiteSpace=wrap;html=1;" parent="1" vertex="1">
          <mxGeometry x="760" y="110" width="120" height="80" as="geometry" />
        </mxCell>
        <mxCell id="9jYD4hcjV8UE8tQ0Zy73-34" value="Адрес" style="ellipse;whiteSpace=wrap;html=1;" parent="1" vertex="1">
          <mxGeometry x="820" y="190" width="120" height="80" as="geometry" />
        </mxCell>
        <mxCell id="9jYD4hcjV8UE8tQ0Zy73-35" value="Общая стоимость" style="ellipse;whiteSpace=wrap;html=1;" parent="1" vertex="1">
          <mxGeometry x="820" y="290" width="120" height="80" as="geometry" />
        </mxCell>
        <mxCell id="9jYD4hcjV8UE8tQ0Zy73-36" value="Общий вес" style="ellipse;whiteSpace=wrap;html=1;" parent="1" vertex="1">
          <mxGeometry x="760" y="380" width="120" height="80" as="geometry" />
        </mxCell>
        <mxCell id="9jYD4hcjV8UE8tQ0Zy73-37" value="" style="endArrow=none;html=1;rounded=0;entryX=0.5;entryY=1;entryDx=0;entryDy=0;exitX=1;exitY=0.5;exitDx=0;exitDy=0;" parent="1" source="9jYD4hcjV8UE8tQ0Zy73-8" target="9jYD4hcjV8UE8tQ0Zy73-33" edge="1">
          <mxGeometry width="50" height="50" relative="1" as="geometry">
            <mxPoint x="650" y="290" as="sourcePoint" />
            <mxPoint x="700" y="240" as="targetPoint" />
          </mxGeometry>
        </mxCell>
        <mxCell id="9jYD4hcjV8UE8tQ0Zy73-38" value="" style="endArrow=none;html=1;rounded=0;entryX=0;entryY=0.5;entryDx=0;entryDy=0;exitX=1;exitY=0.5;exitDx=0;exitDy=0;" parent="1" source="9jYD4hcjV8UE8tQ0Zy73-8" target="9jYD4hcjV8UE8tQ0Zy73-34" edge="1">
          <mxGeometry width="50" height="50" relative="1" as="geometry">
            <mxPoint x="630" y="290" as="sourcePoint" />
            <mxPoint x="680" y="240" as="targetPoint" />
          </mxGeometry>
        </mxCell>
        <mxCell id="9jYD4hcjV8UE8tQ0Zy73-39" value="" style="endArrow=none;html=1;rounded=0;entryX=0;entryY=0.5;entryDx=0;entryDy=0;exitX=1;exitY=0.5;exitDx=0;exitDy=0;" parent="1" source="9jYD4hcjV8UE8tQ0Zy73-8" target="9jYD4hcjV8UE8tQ0Zy73-35" edge="1">
          <mxGeometry width="50" height="50" relative="1" as="geometry">
            <mxPoint x="630" y="280" as="sourcePoint" />
            <mxPoint x="680" y="230" as="targetPoint" />
          </mxGeometry>
        </mxCell>
        <mxCell id="9jYD4hcjV8UE8tQ0Zy73-40" value="" style="endArrow=none;html=1;rounded=0;entryX=0;entryY=0;entryDx=0;entryDy=0;exitX=1;exitY=0.5;exitDx=0;exitDy=0;" parent="1" source="9jYD4hcjV8UE8tQ0Zy73-8" target="9jYD4hcjV8UE8tQ0Zy73-36" edge="1">
          <mxGeometry width="50" height="50" relative="1" as="geometry">
            <mxPoint x="640" y="290" as="sourcePoint" />
            <mxPoint x="690" y="240" as="targetPoint" />
          </mxGeometry>
        </mxCell>
        <mxCell id="9jYD4hcjV8UE8tQ0Zy73-42" value="Имеет" style="rhombus;whiteSpace=wrap;html=1;" parent="1" vertex="1">
          <mxGeometry x="390" y="240" width="80" height="80" as="geometry" />
        </mxCell>
        <mxCell id="9jYD4hcjV8UE8tQ0Zy73-43" value="" style="endArrow=none;html=1;rounded=0;entryX=0;entryY=0.5;entryDx=0;entryDy=0;exitX=1;exitY=0.5;exitDx=0;exitDy=0;" parent="1" source="9jYD4hcjV8UE8tQ0Zy73-10" target="9jYD4hcjV8UE8tQ0Zy73-42" edge="1">
          <mxGeometry width="50" height="50" relative="1" as="geometry">
            <mxPoint x="340" y="290" as="sourcePoint" />
            <mxPoint x="390" y="240" as="targetPoint" />
          </mxGeometry>
        </mxCell>
        <mxCell id="9jYD4hcjV8UE8tQ0Zy73-44" value="" style="endArrow=none;html=1;rounded=0;entryX=0;entryY=0.5;entryDx=0;entryDy=0;exitX=1;exitY=0.5;exitDx=0;exitDy=0;" parent="1" source="9jYD4hcjV8UE8tQ0Zy73-42" target="9jYD4hcjV8UE8tQ0Zy73-8" edge="1">
          <mxGeometry width="50" height="50" relative="1" as="geometry">
            <mxPoint x="470" y="280" as="sourcePoint" />
            <mxPoint x="520" y="230" as="targetPoint" />
          </mxGeometry>
        </mxCell>
        <mxCell id="9jYD4hcjV8UE8tQ0Zy73-45" value="Название" style="ellipse;whiteSpace=wrap;html=1;" parent="1" vertex="1">
          <mxGeometry x="30" y="240" width="120" height="80" as="geometry" />
        </mxCell>
        <mxCell id="9jYD4hcjV8UE8tQ0Zy73-46" value="" style="endArrow=none;html=1;rounded=0;entryX=0;entryY=0.5;entryDx=0;entryDy=0;exitX=1;exitY=0.5;exitDx=0;exitDy=0;" parent="1" source="9jYD4hcjV8UE8tQ0Zy73-45" target="9jYD4hcjV8UE8tQ0Zy73-10" edge="1">
          <mxGeometry width="50" height="50" relative="1" as="geometry">
            <mxPoint x="160" y="280" as="sourcePoint" />
            <mxPoint x="210" y="230" as="targetPoint" />
          </mxGeometry>
        </mxCell>
        <mxCell id="9jYD4hcjV8UE8tQ0Zy73-48" value="" style="edgeStyle=orthogonalEdgeStyle;rounded=0;orthogonalLoop=1;jettySize=auto;html=1;endArrow=none;startFill=0;" parent="1" source="9jYD4hcjV8UE8tQ0Zy73-47" target="9jYD4hcjV8UE8tQ0Zy73-12" edge="1">
          <mxGeometry relative="1" as="geometry" />
        </mxCell>
        <mxCell id="9jYD4hcjV8UE8tQ0Zy73-49" style="edgeStyle=orthogonalEdgeStyle;rounded=0;orthogonalLoop=1;jettySize=auto;html=1;exitX=1;exitY=0.5;exitDx=0;exitDy=0;entryX=0.5;entryY=1;entryDx=0;entryDy=0;endArrow=none;startFill=0;" parent="1" source="9jYD4hcjV8UE8tQ0Zy73-47" target="9jYD4hcjV8UE8tQ0Zy73-1" edge="1">
          <mxGeometry relative="1" as="geometry" />
        </mxCell>
        <mxCell id="9jYD4hcjV8UE8tQ0Zy73-47" value="Содержит" style="rhombus;whiteSpace=wrap;html=1;" parent="1" vertex="1">
          <mxGeometry x="140" y="66" width="80" height="80" as="geometry" />
        </mxCell>
        <mxCell id="9jYD4hcjV8UE8tQ0Zy73-50" value="Номер карты" style="ellipse;whiteSpace=wrap;html=1;" parent="1" vertex="1">
          <mxGeometry x="-245" y="38" width="120" height="80" as="geometry" />
        </mxCell>
        <mxCell id="9jYD4hcjV8UE8tQ0Zy73-51" value="Срок действия карты&amp;nbsp;" style="ellipse;whiteSpace=wrap;html=1;" parent="1" vertex="1">
          <mxGeometry x="-280" y="113.5" width="96" height="73" as="geometry" />
        </mxCell>
        <mxCell id="9jYD4hcjV8UE8tQ0Zy73-52" value="" style="endArrow=none;html=1;rounded=0;entryX=0;entryY=0.5;entryDx=0;entryDy=0;exitX=1;exitY=0.5;exitDx=0;exitDy=0;" parent="1" source="9jYD4hcjV8UE8tQ0Zy73-50" target="9jYD4hcjV8UE8tQ0Zy73-12" edge="1">
          <mxGeometry width="50" height="50" relative="1" as="geometry">
            <mxPoint x="-140" y="150" as="sourcePoint" />
            <mxPoint x="-90" y="100" as="targetPoint" />
          </mxGeometry>
        </mxCell>
        <mxCell id="9jYD4hcjV8UE8tQ0Zy73-53" value="" style="endArrow=none;html=1;rounded=0;entryX=0;entryY=0.5;entryDx=0;entryDy=0;exitX=1;exitY=0.5;exitDx=0;exitDy=0;" parent="1" source="9jYD4hcjV8UE8tQ0Zy73-51" target="9jYD4hcjV8UE8tQ0Zy73-12" edge="1">
          <mxGeometry width="50" height="50" relative="1" as="geometry">
            <mxPoint x="-150" y="250" as="sourcePoint" />
            <mxPoint x="-100" y="200" as="targetPoint" />
          </mxGeometry>
        </mxCell>
        <mxCell id="NzuITZrCwcUjT3j505YK-6" style="edgeStyle=orthogonalEdgeStyle;rounded=0;orthogonalLoop=1;jettySize=auto;html=1;exitX=0.5;exitY=1;exitDx=0;exitDy=0;entryX=0.5;entryY=0;entryDx=0;entryDy=0;endArrow=none;startFill=0;" parent="1" source="9jYD4hcjV8UE8tQ0Zy73-54" target="9jYD4hcjV8UE8tQ0Zy73-7" edge="1">
          <mxGeometry relative="1" as="geometry" />
        </mxCell>
        <mxCell id="9jYD4hcjV8UE8tQ0Zy73-54" value="Содержит" style="rhombus;whiteSpace=wrap;html=1;" parent="1" vertex="1">
          <mxGeometry x="313" y="470" width="80" height="80" as="geometry" />
        </mxCell>
        <mxCell id="9jYD4hcjV8UE8tQ0Zy73-58" style="edgeStyle=orthogonalEdgeStyle;rounded=0;orthogonalLoop=1;jettySize=auto;html=1;exitX=0.5;exitY=1;exitDx=0;exitDy=0;entryX=0.5;entryY=0;entryDx=0;entryDy=0;endArrow=none;startFill=0;" parent="1" source="9jYD4hcjV8UE8tQ0Zy73-56" target="9jYD4hcjV8UE8tQ0Zy73-9" edge="1">
          <mxGeometry relative="1" as="geometry">
            <mxPoint x="670" y="560" as="sourcePoint" />
          </mxGeometry>
        </mxCell>
        <mxCell id="9jYD4hcjV8UE8tQ0Zy73-56" value="Содержит" style="rhombus;whiteSpace=wrap;html=1;" parent="1" vertex="1">
          <mxGeometry x="630" y="470" width="80" height="80" as="geometry" />
        </mxCell>
        <mxCell id="9jYD4hcjV8UE8tQ0Zy73-60" style="edgeStyle=orthogonalEdgeStyle;rounded=0;orthogonalLoop=1;jettySize=auto;html=1;entryX=0.75;entryY=0;entryDx=0;entryDy=0;endArrow=none;startFill=0;exitX=1;exitY=0.5;exitDx=0;exitDy=0;" parent="1" source="9jYD4hcjV8UE8tQ0Zy73-59" target="9jYD4hcjV8UE8tQ0Zy73-3" edge="1">
          <mxGeometry relative="1" as="geometry">
            <Array as="points">
              <mxPoint x="1080" y="740" />
              <mxPoint x="1080" />
              <mxPoint x="610" />
            </Array>
          </mxGeometry>
        </mxCell>
        <mxCell id="9jYD4hcjV8UE8tQ0Zy73-59" value="Выполняется" style="rhombus;whiteSpace=wrap;html=1;" parent="1" vertex="1">
          <mxGeometry x="621.5" y="700" width="97" height="80" as="geometry" />
        </mxCell>
        <mxCell id="9jYD4hcjV8UE8tQ0Zy73-64" style="edgeStyle=orthogonalEdgeStyle;rounded=0;orthogonalLoop=1;jettySize=auto;html=1;exitX=0.5;exitY=1;exitDx=0;exitDy=0;entryX=0.5;entryY=0;entryDx=0;entryDy=0;endArrow=none;startFill=0;" parent="1" source="9jYD4hcjV8UE8tQ0Zy73-62" target="9jYD4hcjV8UE8tQ0Zy73-4" edge="1">
          <mxGeometry relative="1" as="geometry">
            <mxPoint x="60" y="560" as="sourcePoint" />
          </mxGeometry>
        </mxCell>
        <mxCell id="9jYD4hcjV8UE8tQ0Zy73-62" value="Создает" style="rhombus;whiteSpace=wrap;html=1;" parent="1" vertex="1">
          <mxGeometry x="20" y="470" width="80" height="80" as="geometry" />
        </mxCell>
        <mxCell id="9jYD4hcjV8UE8tQ0Zy73-68" style="edgeStyle=orthogonalEdgeStyle;rounded=0;orthogonalLoop=1;jettySize=auto;html=1;exitX=0.5;exitY=1;exitDx=0;exitDy=0;entryX=0;entryY=0.5;entryDx=0;entryDy=0;endArrow=none;startFill=0;" parent="1" source="9jYD4hcjV8UE8tQ0Zy73-66" target="9jYD4hcjV8UE8tQ0Zy73-5" edge="1">
          <mxGeometry relative="1" as="geometry" />
        </mxCell>
        <mxCell id="9jYD4hcjV8UE8tQ0Zy73-66" value="Содержит" style="rhombus;whiteSpace=wrap;html=1;" parent="1" vertex="1">
          <mxGeometry x="20" y="700" width="80" height="80" as="geometry" />
        </mxCell>
        <mxCell id="9jYD4hcjV8UE8tQ0Zy73-71" style="edgeStyle=orthogonalEdgeStyle;rounded=0;orthogonalLoop=1;jettySize=auto;html=1;exitX=0;exitY=0.5;exitDx=0;exitDy=0;entryX=0.5;entryY=0;entryDx=0;entryDy=0;endArrow=none;startFill=0;" parent="1" source="9jYD4hcjV8UE8tQ0Zy73-69" target="9jYD4hcjV8UE8tQ0Zy73-11" edge="1">
          <mxGeometry relative="1" as="geometry">
            <Array as="points">
              <mxPoint x="-330" y="630" />
              <mxPoint x="-330" y="-360" />
              <mxPoint x="280" y="-360" />
            </Array>
          </mxGeometry>
        </mxCell>
        <mxCell id="9jYD4hcjV8UE8tQ0Zy73-69" value="Создает/Получает" style="rhombus;whiteSpace=wrap;html=1;" parent="1" vertex="1">
          <mxGeometry x="-200" y="590" width="80" height="80" as="geometry" />
        </mxCell>
        <mxCell id="9jYD4hcjV8UE8tQ0Zy73-75" style="edgeStyle=orthogonalEdgeStyle;rounded=0;orthogonalLoop=1;jettySize=auto;html=1;endArrow=none;startFill=0;" parent="1" source="9jYD4hcjV8UE8tQ0Zy73-72" target="9jYD4hcjV8UE8tQ0Zy73-2" edge="1">
          <mxGeometry relative="1" as="geometry" />
        </mxCell>
        <mxCell id="9jYD4hcjV8UE8tQ0Zy73-72" value="Создает / Получает" style="rhombus;whiteSpace=wrap;html=1;" parent="1" vertex="1">
          <mxGeometry x="-80" y="-120" width="80" height="80" as="geometry" />
        </mxCell>
        <mxCell id="9jYD4hcjV8UE8tQ0Zy73-74" style="edgeStyle=orthogonalEdgeStyle;rounded=0;orthogonalLoop=1;jettySize=auto;html=1;entryX=0.5;entryY=0;entryDx=0;entryDy=0;endArrow=none;startFill=0;" parent="1" source="9jYD4hcjV8UE8tQ0Zy73-73" target="9jYD4hcjV8UE8tQ0Zy73-3" edge="1">
          <mxGeometry relative="1" as="geometry" />
        </mxCell>
        <mxCell id="9jYD4hcjV8UE8tQ0Zy73-73" value="Создает/Получает" style="rhombus;whiteSpace=wrap;html=1;" parent="1" vertex="1">
          <mxGeometry x="540" y="-120" width="80" height="80" as="geometry" />
        </mxCell>
        <mxCell id="9jYD4hcjV8UE8tQ0Zy73-81" style="edgeStyle=orthogonalEdgeStyle;rounded=0;orthogonalLoop=1;jettySize=auto;html=1;exitX=1;exitY=0.5;exitDx=0;exitDy=0;entryX=0.5;entryY=1;entryDx=0;entryDy=0;endArrow=none;startFill=0;" parent="1" source="9jYD4hcjV8UE8tQ0Zy73-80" target="9jYD4hcjV8UE8tQ0Zy73-8" edge="1">
          <mxGeometry relative="1" as="geometry">
            <Array as="points">
              <mxPoint x="-160" y="390" />
              <mxPoint x="580" y="390" />
            </Array>
          </mxGeometry>
        </mxCell>
        <mxCell id="9jYD4hcjV8UE8tQ0Zy73-80" value="Содержит" style="rhombus;whiteSpace=wrap;html=1;" parent="1" vertex="1">
          <mxGeometry x="-240" y="350" width="80" height="80" as="geometry" />
        </mxCell>
        <mxCell id="NzuITZrCwcUjT3j505YK-4" style="edgeStyle=orthogonalEdgeStyle;rounded=0;orthogonalLoop=1;jettySize=auto;html=1;exitX=0.5;exitY=1;exitDx=0;exitDy=0;entryX=0.5;entryY=0;entryDx=0;entryDy=0;endArrow=none;startFill=0;" parent="1" source="NzuITZrCwcUjT3j505YK-1" target="9jYD4hcjV8UE8tQ0Zy73-6" edge="1">
          <mxGeometry relative="1" as="geometry" />
        </mxCell>
        <mxCell id="NzuITZrCwcUjT3j505YK-1" value="Содержит" style="rhombus;whiteSpace=wrap;html=1;" parent="1" vertex="1">
          <mxGeometry x="313" y="690" width="80" height="80" as="geometry" />
        </mxCell>
        <mxCell id="NzuITZrCwcUjT3j505YK-2" value="Содержит" style="rhombus;whiteSpace=wrap;html=1;" parent="1" vertex="1">
          <mxGeometry x="313" y="870" width="80" height="80" as="geometry" />
        </mxCell>
        <mxCell id="NzuITZrCwcUjT3j505YK-8" value="Адрес" style="ellipse;whiteSpace=wrap;html=1;" parent="1" vertex="1">
          <mxGeometry x="150" y="530" width="120" height="80" as="geometry" />
        </mxCell>
        <mxCell id="NzuITZrCwcUjT3j505YK-9" value="Название" style="ellipse;whiteSpace=wrap;html=1;" parent="1" vertex="1">
          <mxGeometry x="150" y="630" width="120" height="80" as="geometry" />
        </mxCell>
        <mxCell id="NzuITZrCwcUjT3j505YK-11" value="" style="endArrow=none;html=1;rounded=0;entryX=0;entryY=1;entryDx=0;entryDy=0;exitX=1;exitY=0.5;exitDx=0;exitDy=0;" parent="1" source="9jYD4hcjV8UE8tQ0Zy73-4" target="NzuITZrCwcUjT3j505YK-8" edge="1">
          <mxGeometry width="50" height="50" relative="1" as="geometry">
            <mxPoint x="120" y="620" as="sourcePoint" />
            <mxPoint x="170" y="570" as="targetPoint" />
          </mxGeometry>
        </mxCell>
        <mxCell id="NzuITZrCwcUjT3j505YK-12" value="" style="endArrow=none;html=1;rounded=0;entryX=1;entryY=0.5;entryDx=0;entryDy=0;exitX=0;exitY=0.5;exitDx=0;exitDy=0;" parent="1" source="NzuITZrCwcUjT3j505YK-9" target="9jYD4hcjV8UE8tQ0Zy73-4" edge="1">
          <mxGeometry width="50" height="50" relative="1" as="geometry">
            <mxPoint x="160" y="660" as="sourcePoint" />
            <mxPoint x="210" y="610" as="targetPoint" />
          </mxGeometry>
        </mxCell>
        <mxCell id="NzuITZrCwcUjT3j505YK-13" value="Дата добавления продукта" style="ellipse;whiteSpace=wrap;html=1;" parent="1" vertex="1">
          <mxGeometry x="450" y="580" width="120" height="80" as="geometry" />
        </mxCell>
        <mxCell id="NzuITZrCwcUjT3j505YK-14" value="" style="endArrow=none;html=1;rounded=0;entryX=0;entryY=0.5;entryDx=0;entryDy=0;exitX=1;exitY=0.5;exitDx=0;exitDy=0;" parent="1" source="9jYD4hcjV8UE8tQ0Zy73-7" target="NzuITZrCwcUjT3j505YK-13" edge="1">
          <mxGeometry width="50" height="50" relative="1" as="geometry">
            <mxPoint x="420" y="610" as="sourcePoint" />
            <mxPoint x="470" y="560" as="targetPoint" />
          </mxGeometry>
        </mxCell>
        <mxCell id="NzuITZrCwcUjT3j505YK-15" value="Кол-во продукта" style="ellipse;whiteSpace=wrap;html=1;" parent="1" vertex="1">
          <mxGeometry x="460" y="780" width="120" height="80" as="geometry" />
        </mxCell>
        <mxCell id="NzuITZrCwcUjT3j505YK-16" value="" style="endArrow=none;html=1;rounded=0;entryX=0;entryY=0.5;entryDx=0;entryDy=0;exitX=1;exitY=0.5;exitDx=0;exitDy=0;" parent="1" source="9jYD4hcjV8UE8tQ0Zy73-6" target="NzuITZrCwcUjT3j505YK-15" edge="1">
          <mxGeometry width="50" height="50" relative="1" as="geometry">
            <mxPoint x="420" y="820" as="sourcePoint" />
            <mxPoint x="470" y="770" as="targetPoint" />
          </mxGeometry>
        </mxCell>
        <mxCell id="NzuITZrCwcUjT3j505YK-17" value="Стоимость за единицу товара" style="ellipse;whiteSpace=wrap;html=1;" parent="1" vertex="1">
          <mxGeometry x="480" y="870" width="120" height="80" as="geometry" />
        </mxCell>
        <mxCell id="NzuITZrCwcUjT3j505YK-18" value="Название&amp;nbsp;" style="ellipse;whiteSpace=wrap;html=1;" parent="1" vertex="1">
          <mxGeometry x="590" y="930" width="120" height="80" as="geometry" />
        </mxCell>
        <mxCell id="NzuITZrCwcUjT3j505YK-19" value="Вес" style="ellipse;whiteSpace=wrap;html=1;" parent="1" vertex="1">
          <mxGeometry x="590" y="1020" width="120" height="80" as="geometry" />
        </mxCell>
        <mxCell id="NzuITZrCwcUjT3j505YK-20" value="Кол-во на складе" style="ellipse;whiteSpace=wrap;html=1;" parent="1" vertex="1">
          <mxGeometry x="480" y="1089" width="120" height="80" as="geometry" />
        </mxCell>
        <mxCell id="NzuITZrCwcUjT3j505YK-21" value="" style="endArrow=none;html=1;rounded=0;entryX=0;entryY=1;entryDx=0;entryDy=0;exitX=1;exitY=0.5;exitDx=0;exitDy=0;" parent="1" source="9jYD4hcjV8UE8tQ0Zy73-5" target="NzuITZrCwcUjT3j505YK-17" edge="1">
          <mxGeometry width="50" height="50" relative="1" as="geometry">
            <mxPoint x="410" y="1020" as="sourcePoint" />
            <mxPoint x="460" y="970" as="targetPoint" />
          </mxGeometry>
        </mxCell>
        <mxCell id="NzuITZrCwcUjT3j505YK-22" value="" style="endArrow=none;html=1;rounded=0;entryX=0;entryY=0.5;entryDx=0;entryDy=0;exitX=1;exitY=0.5;exitDx=0;exitDy=0;" parent="1" source="9jYD4hcjV8UE8tQ0Zy73-5" target="NzuITZrCwcUjT3j505YK-18" edge="1">
          <mxGeometry width="50" height="50" relative="1" as="geometry">
            <mxPoint x="450" y="1050" as="sourcePoint" />
            <mxPoint x="500" y="1000" as="targetPoint" />
          </mxGeometry>
        </mxCell>
        <mxCell id="NzuITZrCwcUjT3j505YK-23" value="" style="endArrow=none;html=1;rounded=0;entryX=0;entryY=0.5;entryDx=0;entryDy=0;exitX=1;exitY=0.5;exitDx=0;exitDy=0;" parent="1" source="9jYD4hcjV8UE8tQ0Zy73-5" target="NzuITZrCwcUjT3j505YK-19" edge="1">
          <mxGeometry width="50" height="50" relative="1" as="geometry">
            <mxPoint x="420" y="1070" as="sourcePoint" />
            <mxPoint x="470" y="1020" as="targetPoint" />
          </mxGeometry>
        </mxCell>
        <mxCell id="NzuITZrCwcUjT3j505YK-24" value="" style="endArrow=none;html=1;rounded=0;entryX=1;entryY=0.5;entryDx=0;entryDy=0;exitX=0;exitY=0;exitDx=0;exitDy=0;" parent="1" source="NzuITZrCwcUjT3j505YK-20" target="9jYD4hcjV8UE8tQ0Zy73-5" edge="1">
          <mxGeometry width="50" height="50" relative="1" as="geometry">
            <mxPoint x="360" y="1110" as="sourcePoint" />
            <mxPoint x="410" y="1060" as="targetPoint" />
          </mxGeometry>
        </mxCell>
        <mxCell id="NzuITZrCwcUjT3j505YK-25" value="Статус оплаты" style="ellipse;whiteSpace=wrap;html=1;" parent="1" vertex="1">
          <mxGeometry x="770" y="590" width="120" height="80" as="geometry" />
        </mxCell>
        <mxCell id="NzuITZrCwcUjT3j505YK-26" value="" style="endArrow=none;html=1;rounded=0;entryX=0;entryY=0.5;entryDx=0;entryDy=0;exitX=1;exitY=0.5;exitDx=0;exitDy=0;" parent="1" source="9jYD4hcjV8UE8tQ0Zy73-9" target="NzuITZrCwcUjT3j505YK-25" edge="1">
          <mxGeometry width="50" height="50" relative="1" as="geometry">
            <mxPoint x="740" y="610" as="sourcePoint" />
            <mxPoint x="790" y="560" as="targetPoint" />
          </mxGeometry>
        </mxCell>
        <mxCell id="NzuITZrCwcUjT3j505YK-27" value="Тип сообщения" style="ellipse;whiteSpace=wrap;html=1;" parent="1" vertex="1">
          <mxGeometry x="440" y="-370" width="120" height="80" as="geometry" />
        </mxCell>
        <mxCell id="NzuITZrCwcUjT3j505YK-28" value="Тело сообщения" style="ellipse;whiteSpace=wrap;html=1;" parent="1" vertex="1">
          <mxGeometry x="440" y="-280" width="120" height="80" as="geometry" />
        </mxCell>
        <mxCell id="NzuITZrCwcUjT3j505YK-29" value="" style="endArrow=none;html=1;rounded=0;entryX=0;entryY=1;entryDx=0;entryDy=0;" parent="1" target="NzuITZrCwcUjT3j505YK-27" edge="1">
          <mxGeometry width="50" height="50" relative="1" as="geometry">
            <mxPoint x="340" y="-240" as="sourcePoint" />
            <mxPoint x="390" y="-290" as="targetPoint" />
          </mxGeometry>
        </mxCell>
        <mxCell id="NzuITZrCwcUjT3j505YK-30" value="" style="endArrow=none;html=1;rounded=0;entryX=0;entryY=0.5;entryDx=0;entryDy=0;exitX=1;exitY=0.5;exitDx=0;exitDy=0;" parent="1" source="9jYD4hcjV8UE8tQ0Zy73-11" target="NzuITZrCwcUjT3j505YK-28" edge="1">
          <mxGeometry width="50" height="50" relative="1" as="geometry">
            <mxPoint x="320" y="-170" as="sourcePoint" />
            <mxPoint x="370" y="-220" as="targetPoint" />
          </mxGeometry>
        </mxCell>
      </root>
    </mxGraphModel>
  </diagram>
</mxfile>
